<?xml version="1.0" encoding="UTF-8" standalone="no"?>
<svg
   xmlns:dc="http://purl.org/dc/elements/1.1/"
   xmlns:cc="http://creativecommons.org/ns#"
   xmlns:rdf="http://www.w3.org/1999/02/22-rdf-syntax-ns#"
   xmlns:svg="http://www.w3.org/2000/svg"
   xmlns="http://www.w3.org/2000/svg"
   xmlns:sodipodi="http://sodipodi.sourceforge.net/DTD/sodipodi-0.dtd"
   xmlns:inkscape="http://www.inkscape.org/namespaces/inkscape"
   sodipodi:docname="logo.svg"
   inkscape:version="1.0 (4035a4fb49, 2020-05-01)"
   id="svg1091"
   version="1.1"
   viewBox="0 0 72.160843 49.87524"
   height="49.87524mm"
   width="72.160843mm">
  <defs
     id="defs1085" />
  <sodipodi:namedview
     inkscape:window-maximized="1"
     inkscape:window-y="-8"
     inkscape:window-x="-8"
     inkscape:window-height="1137"
     inkscape:window-width="1920"
     fit-margin-bottom="0"
     fit-margin-right="0"
     fit-margin-left="0"
     fit-margin-top="0"
     showgrid="true"
     inkscape:document-rotation="0"
     inkscape:current-layer="layer1"
     inkscape:document-units="mm"
     inkscape:cy="211.44003"
     inkscape:cx="99.426566"
     inkscape:zoom="1.8205281"
     inkscape:pageshadow="2"
     inkscape:pageopacity="0.0"
     borderopacity="1.0"
     bordercolor="#666666"
     pagecolor="#ffffff"
     id="base">
    <inkscape:grid
       originy="-5.8240965"
       originx="-3.7950043"
       id="grid1720"
       type="xygrid" />
  </sodipodi:namedview>
  <metadata
     id="metadata1088">
    <rdf:RDF>
      <cc:Work
         rdf:about="">
        <dc:format>image/svg+xml</dc:format>
        <dc:type
           rdf:resource="http://purl.org/dc/dcmitype/StillImage" />
        <dc:title></dc:title>
      </cc:Work>
    </rdf:RDF>
  </metadata>
  <g
     transform="translate(-181.14978,-104.20022)"
     id="layer1"
     inkscape:groupmode="layer"
     inkscape:label="Layer 1">
    <path
       inkscape:export-ydpi="300"
       inkscape:export-xdpi="300"
       style="opacity:1;fill:#ffffff;fill-opacity:1;stroke:none;stroke-width:5.63566;stroke-linecap:round;stroke-miterlimit:4;stroke-dasharray:none;stroke-opacity:1"
       id="path966-9-7-8-6-9-7-7-3"
       transform="matrix(0.84175865,0.53985403,-0.46117434,0.88730954,0,0)"
       sodipodi:type="arc"
       sodipodi:cx="223.96465"
       sodipodi:cy="2.8463929"
       sodipodi:rx="6.5242534"
       sodipodi:ry="5.5638928"
       sodipodi:start="1.1587219"
       sodipodi:end="4.7074909"
       d="m 226.57768,7.9445432 a 6.5242534,5.5638928 0 0 1 -7.15877,-1.1070604 6.5242534,5.5638928 0 0 1 -1.50588,-6.07021559 6.5242534,5.5638928 0 0 1 6.01966,-3.48470041 l 0.032,5.5638261 z"
       sodipodi:arc-type="slice" />
    <path
       inkscape:export-ydpi="300"
       inkscape:export-xdpi="300"
       style="opacity:1;fill:none;fill-opacity:1;stroke:#ffffff;stroke-width:4.49714;stroke-linecap:round;stroke-miterlimit:4;stroke-dasharray:none;stroke-opacity:1"
       id="path847-8-7-4-8-2-4-1-4"
       sodipodi:type="arc"
       sodipodi:cx="216.59232"
       sodipodi:cy="125.0504"
       sodipodi:rx="28.586683"
       sodipodi:ry="18.545013"
       sodipodi:start="3.1415927"
       sodipodi:end="4.711186"
       sodipodi:open="true"
       d="m 188.00563,125.0504 a 28.586683,18.545013 0 0 1 28.5523,-18.545"
       sodipodi:arc-type="arc" />
    <path
       inkscape:export-ydpi="300"
       inkscape:export-xdpi="300"
       style="opacity:1;fill:none;stroke:#ffffff;stroke-width:3.60987;stroke-linecap:round;stroke-linejoin:miter;stroke-miterlimit:4;stroke-dasharray:none;stroke-opacity:1"
       d="m 188.45895,124.31171 v 27.92358"
       id="path849-0-4-6-5-5-4-6-3-5-2"
       inkscape:connector-curvature="0"
       sodipodi:nodetypes="cc" />
    <ellipse
       inkscape:export-ydpi="300"
       inkscape:export-xdpi="300"
       style="opacity:1;fill:#ffffff;fill-opacity:1;stroke:none;stroke-width:3.32609;stroke-linecap:round;stroke-miterlimit:4;stroke-dasharray:none;stroke-opacity:1"
       id="path902-14-4-2-3-0-70-5-8"
       cx="203.81038"
       cy="124.7904"
       rx="2.7797515"
       ry="5.0672317" />
    <path
       inkscape:export-ydpi="300"
       inkscape:export-xdpi="300"
       style="opacity:1;fill:#ffffff;fill-opacity:1;stroke:none;stroke-width:5.63566;stroke-linecap:round;stroke-miterlimit:4;stroke-dasharray:none;stroke-opacity:1"
       id="path966-8-0-9-9-6-1-2-9-21"
       transform="matrix(-0.84175865,0.53985403,0.46117434,0.88730954,0,0)"
       sodipodi:type="arc"
       sodipodi:cx="-163.16182"
       sodipodi:cy="238.31776"
       sodipodi:rx="6.5242534"
       sodipodi:ry="5.5638928"
       sodipodi:start="1.1587219"
       sodipodi:end="4.7074909"
       d="m -160.54878,243.41591 a 6.5242534,5.5638928 0 0 1 -7.15878,-1.10706 6.5242534,5.5638928 0 0 1 -1.50588,-6.07021 6.5242534,5.5638928 0 0 1 6.01966,-3.4847 l 0.032,5.56382 z"
       sodipodi:arc-type="slice" />
    <path
       inkscape:export-ydpi="300"
       inkscape:export-xdpi="300"
       style="opacity:1;fill:none;fill-opacity:1;stroke:#ffffff;stroke-width:4.49714;stroke-linecap:round;stroke-miterlimit:4;stroke-dasharray:none;stroke-opacity:1"
       id="path847-9-4-2-1-7-6-3-8-8"
       sodipodi:type="arc"
       sodipodi:cx="-217.86804"
       sodipodi:cy="124.99442"
       sodipodi:rx="28.586683"
       sodipodi:ry="18.545013"
       sodipodi:start="3.1592399"
       sodipodi:end="4.7768502"
       sodipodi:open="true"
       d="m -246.45027,124.66717 a 28.586683,18.545013 0 0 1 9.21505,-13.31321 28.586683,18.545013 0 0 1 21.20863,-4.86603"
       transform="scale(-1,1)"
       sodipodi:arc-type="arc" />
    <path
       inkscape:export-ydpi="300"
       inkscape:export-xdpi="300"
       style="opacity:1;fill:none;stroke:#ffffff;stroke-width:3.60987;stroke-linecap:round;stroke-linejoin:miter;stroke-miterlimit:4;stroke-dasharray:none;stroke-opacity:1"
       d="m 246.14644,124.31171 v 27.95882"
       id="path849-0-4-3-2-4-5-7-7-6-4-9"
       inkscape:connector-curvature="0"
       sodipodi:nodetypes="cc" />
    <ellipse
       inkscape:export-ydpi="300"
       inkscape:export-xdpi="300"
       style="opacity:1;fill:#ffffff;fill-opacity:1;stroke:none;stroke-width:3.32609;stroke-linecap:round;stroke-miterlimit:4;stroke-dasharray:none;stroke-opacity:1"
       id="path902-1-6-4-5-3-9-53-9-2"
       cx="-230.65001"
       cy="124.73441"
       rx="2.7797515"
       ry="5.0672317"
       transform="scale(-1,1)" />
    <ellipse
       inkscape:export-ydpi="300"
       inkscape:export-xdpi="300"
       style="opacity:1;fill:#ffffff;fill-opacity:1;stroke:none;stroke-width:3.17748;stroke-linecap:round;stroke-miterlimit:4;stroke-dasharray:none;stroke-opacity:1"
       id="path902-1-6-3-1-8-3-0-5-6-9"
       cx="-149.08803"
       cy="-217.2449"
       rx="2.8180833"
       ry="4.5616436"
       transform="matrix(0,-1,-1,0,0,0)" />
    <path
       transform="matrix(0.26458333,0,0,0.26458333,181.14978,104.20022)"
       d="M 143.26367 98.457031 A 51.390071 30.945174 51.468453 0 0 136.4043 99.349609 A 30.945174 51.390071 38.531547 0 0 91.009766 120.00586 A 30.945174 51.390071 38.531547 0 0 77.621094 181.2793 A 30.945174 51.390071 38.531547 0 0 132.7793 166.40625 A 30.945174 51.390071 38.531547 0 0 136.7793 161.61914 A 51.390071 30.945174 51.468453 0 0 140.65039 166.24023 A 51.390071 30.945174 51.468453 0 0 195.80859 181.11328 A 51.390071 30.945174 51.468453 0 0 182.42188 119.8418 A 51.390071 30.945174 51.468453 0 0 143.26367 98.457031 z M 136.77344 119.48438 A 17.696769 19.658183 0 0 1 154.4707 139.14258 A 17.696769 19.658183 0 0 1 136.77344 158.80078 A 17.696769 19.658183 0 0 1 119.07812 139.14258 A 17.696769 19.658183 0 0 1 136.77344 119.48438 z "
       style="opacity:1;fill:#ffffff;fill-opacity:1;stroke:none;stroke-width:35.3412;stroke-linecap:round;stroke-miterlimit:4;stroke-dasharray:none;stroke-opacity:1"
       id="path902-4-1-2-9-2-8-8-4-2-8" />
    <path
       inkscape:export-ydpi="300"
       inkscape:export-xdpi="300"
       style="opacity:1;fill:none;stroke:#ffffff;stroke-width:1.12428;stroke-linecap:butt;stroke-linejoin:miter;stroke-miterlimit:4;stroke-dasharray:none;stroke-opacity:1"
       d="m 207.48582,148.71569 c 0,0 -4.62701,-6.14766 -14.21267,0"
       id="path1049-1-3-7-8-4-5-7-1-5"
       inkscape:connector-curvature="0" />
    <path
       inkscape:export-ydpi="300"
       inkscape:export-xdpi="300"
       style="opacity:1;fill:none;stroke:#ffffff;stroke-width:1.12428;stroke-linecap:butt;stroke-linejoin:miter;stroke-miterlimit:4;stroke-dasharray:none;stroke-opacity:1"
       d="m 207.6172,144.64222 c 0,0 -4.627,-6.14765 -14.21266,0"
       id="path1049-1-2-6-3-6-4-4-2-2-4"
       inkscape:connector-curvature="0" />
    <path
       inkscape:export-ydpi="300"
       inkscape:export-xdpi="300"
       style="opacity:1;fill:none;stroke:#ffffff;stroke-width:1.12428;stroke-linecap:butt;stroke-linejoin:miter;stroke-miterlimit:4;stroke-dasharray:none;stroke-opacity:1"
       d="m 229.03436,148.71569 c 0,0 4.62701,-6.14766 14.21267,0"
       id="path1049-1-26-7-9-7-7-2-3-8-1"
       inkscape:connector-curvature="0" />
    <path
       inkscape:export-ydpi="300"
       inkscape:export-xdpi="300"
       style="opacity:1;fill:none;stroke:#ffffff;stroke-width:1.12428;stroke-linecap:butt;stroke-linejoin:miter;stroke-miterlimit:4;stroke-dasharray:none;stroke-opacity:1"
       d="m 229.21045,144.64222 c 0,0 4.62701,-6.14765 14.21266,0"
       id="path1049-1-2-3-9-5-8-1-1-1-7-9"
       inkscape:connector-curvature="0" />
  </g>
</svg>
